<svg width="400" height="150" viewBox="0 0 400 150" fill="none" xmlns="http://www.w3.org/2000/svg">
<rect width="400" height="150" fill="white"/>
<path fill-rule="evenodd" clip-rule="evenodd" d="M111.369 81.2868C110.916 82.1512 110.293 82.904 109.501 83.5428C108.709 84.1821 107.784 84.7025 106.727 85.1032C105.671 85.5049 104.607 85.7745 103.538 85.9119C102.469 86.0497 101.431 86.0378 100.425 85.8742C99.4183 85.7115 98.5622 85.3795 97.8584 84.8776L98.6513 76.6427C99.3805 76.3922 100.298 76.1351 101.406 75.8718C102.513 75.6089 103.651 75.4205 104.821 75.3079C105.991 75.1948 107.098 75.2082 108.143 75.3456C109.186 75.4834 110.01 75.8155 110.614 76.3421C110.941 76.6427 111.218 76.9685 111.445 77.3196C111.671 77.6707 111.809 78.0343 111.86 78.4102C111.985 79.463 111.822 80.4219 111.369 81.2868ZM99.8583 63.7451C100.387 63.4192 101.022 63.1306 101.764 62.8797C102.506 62.6297 103.268 62.4537 104.048 62.3535C104.827 62.2538 105.588 62.2404 106.331 62.3158C107.073 62.3912 107.728 62.5977 108.293 62.936C108.859 63.2747 109.281 63.7637 109.557 64.4024C109.834 65.0422 109.91 65.8508 109.784 66.8283C109.683 67.6054 109.375 68.2637 108.859 68.8023C108.344 69.3419 107.714 69.7927 106.972 70.1562C106.23 70.5202 105.444 70.8083 104.614 71.0206C103.783 71.2343 102.984 71.3913 102.217 71.491C101.45 71.5916 100.783 71.6546 100.217 71.6789C99.651 71.7042 99.2795 71.7166 99.1037 71.7166L99.8583 63.7451ZM115.445 75.9658C115.042 75.0889 114.501 74.318 113.822 73.653C113.143 72.9889 112.337 72.5066 111.407 72.2056C111.809 71.8798 112.206 71.366 112.596 70.6638C112.985 69.9625 113.319 69.1973 113.595 68.3701C113.872 67.5424 114.061 66.7095 114.162 65.8694C114.262 65.0298 114.224 64.3089 114.049 63.7069C113.62 62.2032 112.948 61.0249 112.029 60.1724C111.111 59.3204 110.042 58.7312 108.822 58.4049C107.601 58.08 106.255 58.0104 104.784 58.1983C103.312 58.3863 101.808 58.756 100.274 59.3075C100.274 59.1825 100.286 59.0508 100.312 58.913C100.336 58.7756 100.349 58.631 100.349 58.4803C100.349 58.1044 100.16 57.779 99.7831 57.5028C99.4058 57.2271 98.9716 57.0644 98.4813 57.0138C97.9906 56.9642 97.5123 57.0701 97.0469 57.3334C96.581 57.5968 96.2603 58.08 96.0846 58.7808C95.883 61.0373 95.6819 63.3815 95.4808 65.8126C95.2792 68.2446 95.0657 70.7015 94.8392 73.1836C94.6128 75.6652 94.3863 78.1282 94.1599 80.5722C93.9334 83.0166 93.7069 85.3666 93.4805 87.6226C93.5561 88.2995 93.7448 88.8262 94.0469 89.2021C94.3485 89.5785 94.7009 89.8041 95.1035 89.879C95.5057 89.9544 95.9275 89.8848 96.3675 89.672C96.8075 89.4597 97.1915 89.089 97.519 88.5628C98.5249 89.1143 99.6572 89.4716 100.915 89.6348C102.173 89.7975 103.45 89.7975 104.746 89.6348C106.041 89.4716 107.318 89.1649 108.576 88.7131C109.834 88.2623 110.979 87.6979 112.011 87.0215C113.042 86.3445 113.91 85.5731 114.615 84.7087C115.319 83.8433 115.784 82.9098 116.011 81.9075C116.237 80.8794 116.3 79.8518 116.2 78.8238C116.099 77.7962 115.847 76.844 115.445 75.9658Z" fill="#0D0C23"/>
<path fill-rule="evenodd" clip-rule="evenodd" d="M152.261 95.8185C152.123 96.6457 151.927 97.5168 151.676 98.4323C151.424 99.3468 151.129 100.181 150.789 100.933C150.45 101.685 150.072 102.292 149.658 102.756C149.242 103.22 148.795 103.415 148.317 103.34C147.94 103.289 147.701 103.051 147.601 102.625C147.5 102.198 147.5 101.672 147.601 101.046C147.701 100.419 147.896 99.7103 148.185 98.9208C148.474 98.1313 148.827 97.3475 149.242 96.5708C149.658 95.7932 150.129 95.0481 150.657 94.3334C151.186 93.6193 151.739 93.0235 152.318 92.5474C152.444 92.6976 152.5 93.0735 152.488 93.6756C152.474 94.2772 152.399 94.9918 152.261 95.8185ZM165.055 79.499C164.715 79.1231 164.3 78.9103 163.809 78.8597C163.319 78.8096 162.822 79.0854 162.319 79.6869C161.991 80.2885 161.576 80.8653 161.073 81.4167C160.57 81.9687 160.048 82.4696 159.507 82.9209C158.966 83.3717 158.45 83.761 157.96 84.0863C157.469 84.4126 157.085 84.6507 156.809 84.8009C156.708 83.999 156.651 83.1341 156.639 82.2063C156.626 81.2789 156.645 80.3391 156.696 79.3864C156.771 78.0325 156.928 76.6667 157.167 75.2875C157.406 73.9089 157.752 72.555 158.205 71.2259C158.205 70.5246 158.041 69.9541 157.714 69.5152C157.387 69.0768 156.991 68.8006 156.526 68.688C156.06 68.5754 155.582 68.6379 155.092 68.8759C154.601 69.1145 154.18 69.5471 153.827 70.173C153.526 71.0007 153.179 71.9281 152.79 72.9557C152.399 73.9837 151.959 75.0304 151.469 76.0957C150.978 77.1619 150.431 78.1957 149.827 79.1979C149.223 80.2012 148.563 81.0914 147.845 81.868C147.129 82.6451 146.348 83.2534 145.506 83.6918C144.662 84.1307 143.751 84.3248 142.77 84.2748C142.316 84.1493 141.989 83.8111 141.788 83.2591C141.587 82.7081 141.468 82.0183 141.43 81.1911C141.392 80.3639 141.43 79.4551 141.543 78.4647C141.657 77.4748 141.807 76.4907 141.996 75.5132C142.185 74.5352 142.393 73.6078 142.619 72.7305C142.845 71.8532 143.059 71.1133 143.26 70.5117C143.562 69.7852 143.562 69.1765 143.26 68.688C142.958 68.199 142.543 67.8736 142.015 67.71C141.487 67.5473 140.933 67.554 140.354 67.7291C139.776 67.9046 139.36 68.293 139.109 68.8945C138.681 69.9231 138.291 71.0756 137.939 72.3541C137.587 73.6326 137.304 74.9555 137.09 76.3213C136.876 77.6881 136.756 79.042 136.731 80.383C136.73 80.4703 136.734 80.5533 136.733 80.6401C136.185 82.0975 135.662 83.199 135.165 83.936C134.524 84.8892 133.8 85.3028 132.995 85.1769C132.642 85.0266 132.41 84.676 132.298 84.124C132.183 83.573 132.146 82.8961 132.183 82.0932C132.222 81.2917 132.316 80.383 132.467 79.3673C132.618 78.3521 132.806 77.2993 133.032 76.2087C133.259 75.1177 133.498 74.0219 133.75 72.9185C134.001 71.8155 134.227 70.7751 134.43 69.7971C134.404 68.9198 134.146 68.2496 133.655 67.7854C133.165 67.3222 132.479 67.1404 131.599 67.2401C130.995 67.491 130.548 67.8173 130.259 68.2181C129.969 68.6188 129.737 69.1331 129.561 69.7594C129.46 70.0857 129.309 70.7374 129.108 71.7154C128.906 72.6924 128.649 73.8149 128.334 75.0805C128.02 76.3471 127.649 77.669 127.221 79.0477C126.793 80.4264 126.315 81.6743 125.787 82.7892C125.258 83.9046 124.68 84.8009 124.051 85.4779C123.422 86.1544 122.743 86.4306 122.013 86.3051C121.61 86.2297 121.353 85.8161 121.24 85.0643C121.126 84.312 121.107 83.3851 121.183 82.2816C121.258 81.1787 121.409 79.9689 121.636 78.6532C121.862 77.337 122.094 76.0899 122.334 74.9111C122.573 73.7333 122.793 72.6924 122.994 71.7903C123.195 70.8877 123.334 70.2861 123.409 69.9856C123.409 69.2585 123.245 68.676 122.919 68.2367C122.591 67.7987 122.195 67.5225 121.73 67.4095C121.264 67.2969 120.786 67.3594 120.296 67.5974C119.805 67.836 119.384 68.2686 119.031 68.8945C118.906 69.5715 118.742 70.3553 118.541 71.245C118.339 72.1347 118.145 73.0497 117.956 73.99C117.768 74.9302 117.591 75.8514 117.428 76.754C117.264 77.6566 117.145 78.4461 117.069 79.1231C117.019 79.6492 116.962 80.2952 116.899 81.0594C116.836 81.8246 116.805 82.6327 116.805 83.4848C116.805 84.3377 116.867 85.1835 116.994 86.0232C117.119 86.8633 117.346 87.6342 117.673 88.3354C118 89.0377 118.459 89.6139 119.051 90.0652C119.641 90.5165 120.39 90.767 121.296 90.8176C122.226 90.8672 123.038 90.799 123.73 90.6105C124.422 90.4226 125.051 90.1277 125.617 89.7265C126.183 89.3263 126.699 88.8497 127.165 88.2978C127.629 87.7468 128.089 87.1452 128.542 86.4931C128.97 87.4462 129.523 88.1852 130.202 88.7118C130.882 89.238 131.599 89.5519 132.354 89.6516C133.108 89.7513 133.876 89.6459 134.656 89.332C135.435 89.0191 136.14 88.4862 136.769 87.7339C137.183 87.2726 137.574 86.7483 137.941 86.1687C138.096 86.4401 138.262 86.702 138.448 86.9439C139.065 87.7468 139.902 88.2978 140.959 88.5988C142.09 88.8998 143.197 88.9504 144.279 88.7495C145.361 88.5492 146.393 88.1852 147.374 87.659C148.355 87.1323 149.267 86.4997 150.11 85.7598C150.953 85.0204 151.689 84.25 152.318 83.4471C152.292 84.0238 152.28 84.5696 152.28 85.0829C152.28 85.5972 152.267 86.1544 152.242 86.7564C150.984 87.6342 149.795 88.687 148.676 89.915C147.556 91.1429 146.575 92.4529 145.732 93.8445C144.889 95.2356 144.229 96.6457 143.751 98.0745C143.273 99.5042 143.04 100.839 143.053 102.08C143.065 103.321 143.361 104.405 143.939 105.332C144.518 106.26 145.462 106.924 146.77 107.325C148.129 107.752 149.323 107.763 150.356 107.363C151.387 106.962 152.286 106.297 153.054 105.37C153.821 104.442 154.45 103.321 154.941 102.004C155.431 100.688 155.821 99.3158 156.111 97.887C156.4 96.4582 156.582 95.0533 156.658 93.6756C156.733 92.2964 156.733 91.0675 156.658 89.9899C158.821 89.0878 160.595 87.9471 161.979 86.568C163.363 85.1902 164.507 83.7357 165.413 82.2063C165.69 81.8303 165.784 81.379 165.697 80.8528C165.608 80.3262 165.395 79.8749 165.055 79.499Z" fill="#0D0C23"/>
<path fill-rule="evenodd" clip-rule="evenodd" d="M212.66 77.0934C212.736 76.5172 212.849 75.9089 213 75.2697C213.151 74.6304 213.34 74.0098 213.566 73.4082C213.792 72.8066 214.056 72.2866 214.359 71.8477C214.661 71.4093 214.981 71.0959 215.321 70.9075C215.661 70.72 216.006 70.7386 216.359 70.9638C216.736 71.1899 216.968 71.666 217.057 72.3925C217.145 73.1205 217.057 73.8972 216.793 74.7244C216.528 75.5521 216.057 76.3287 215.377 77.0557C214.699 77.7833 213.78 78.2589 212.623 78.4845C212.572 78.1344 212.585 77.6702 212.66 77.0934ZM225.737 78.6348C225.322 78.5103 224.926 78.4974 224.548 78.5976C224.171 78.6978 223.931 78.9611 223.831 79.3876C223.629 80.1895 223.308 81.0105 222.868 81.8501C222.428 82.6902 221.887 83.486 221.246 84.2383C220.605 84.9901 219.881 85.6546 219.076 86.2309C218.271 86.8077 217.428 87.2213 216.548 87.4717C215.666 87.748 214.937 87.779 214.359 87.5657C213.78 87.3534 213.321 86.9894 212.981 86.4757C212.642 85.9619 212.396 85.3412 212.245 84.6142C212.094 83.8872 212.006 83.1353 211.981 82.3577C213.415 82.4584 214.692 82.2017 215.812 81.5868C216.931 80.9733 217.88 80.158 218.661 79.1429C219.44 78.1277 220.032 76.9871 220.434 75.721C220.836 74.4553 221.063 73.1954 221.114 71.9417C221.139 70.7634 220.963 69.7673 220.586 68.9525C220.208 68.1382 219.698 67.5042 219.057 67.0534C218.416 66.6021 217.679 66.3387 216.849 66.2638C216.019 66.1885 215.176 66.3015 214.321 66.6021C213.289 66.9532 212.415 67.5233 211.698 68.3133C210.981 69.1028 210.383 70.0182 209.905 71.0582C209.427 72.0987 209.05 73.2202 208.773 74.4234C208.496 75.627 208.295 76.8115 208.169 77.9774C208.056 79.0236 207.996 80.024 207.974 80.9895C207.92 81.1121 207.868 81.23 207.811 81.3612C207.421 82.2518 206.967 83.1229 206.452 83.9749C205.936 84.8274 205.364 85.5421 204.735 86.1183C204.106 86.6951 203.452 86.8955 202.773 86.7199C202.37 86.6202 202.15 86.1556 202.112 85.3288C202.075 84.5011 202.118 83.4736 202.244 82.2451C202.37 81.0172 202.515 79.6877 202.678 78.2589C202.842 76.8301 202.923 75.4643 202.923 74.1605C202.923 73.0323 202.709 71.9484 202.282 70.9075C201.854 69.868 201.269 69.0026 200.527 68.3133C199.785 67.6234 198.923 67.1659 197.942 66.9408C196.961 66.7146 195.904 66.8654 194.772 67.3916C193.639 67.9183 192.74 68.6577 192.074 69.6104C191.406 70.5635 190.796 71.5658 190.243 72.6187C190.041 71.8163 189.746 71.0711 189.356 70.3813C188.966 69.6919 188.489 69.0904 187.922 68.5761C187.356 68.0628 186.72 67.6616 186.017 67.373C185.312 67.0853 184.569 66.9408 183.789 66.9408C183.035 66.9408 182.337 67.0853 181.695 67.373C181.054 67.6616 180.469 68.0308 179.94 68.4821C179.412 68.9339 178.934 69.441 178.506 70.0054C178.079 70.5692 177.7 71.1274 177.374 71.6784C177.323 71.0267 177.267 70.4567 177.204 69.9672C177.141 69.4787 177.028 69.0651 176.864 68.7269C176.701 68.3882 176.468 68.1315 176.166 67.9559C175.864 67.7809 175.437 67.6926 174.884 67.6926C174.606 67.6926 174.329 67.7489 174.053 67.8615C173.776 67.9745 173.53 68.1315 173.317 68.3319C173.103 68.5332 172.94 68.777 172.827 69.0651C172.713 69.3532 172.682 69.6857 172.732 70.0617C172.757 70.3379 172.827 70.6694 172.94 71.0582C173.053 71.447 173.16 71.9551 173.261 72.581C173.361 73.2078 173.443 73.9663 173.506 74.8561C173.568 75.7462 173.587 76.8368 173.562 78.1277C173.537 79.4191 173.443 80.929 173.279 82.6587C173.115 84.3885 172.857 86.3941 172.506 88.6749C172.455 89.2015 172.656 89.628 173.11 89.9539C173.562 90.2792 174.078 90.4672 174.657 90.5177C175.235 90.5678 175.783 90.4672 176.298 90.2172C176.814 89.9658 177.11 89.5274 177.185 88.901C177.261 87.7227 177.405 86.4695 177.619 85.1404C177.833 83.8123 178.097 82.4961 178.412 81.1923C178.726 79.889 179.084 78.6482 179.488 77.4694C179.89 76.291 180.337 75.2511 180.827 74.3485C181.318 73.4459 181.827 72.7255 182.356 72.1865C182.884 71.6474 183.437 71.3779 184.016 71.3779C184.721 71.3779 185.267 71.697 185.658 72.3363C186.047 72.976 186.324 73.7975 186.488 74.7993C186.652 75.8025 186.727 76.8998 186.715 78.09C186.701 79.2807 186.652 80.4276 186.564 81.5305C186.475 82.6339 186.375 83.6176 186.261 84.4825C186.148 85.3474 186.067 85.9433 186.017 86.2686C186.017 86.8454 186.237 87.3024 186.677 87.6411C187.117 87.9793 187.607 88.1802 188.149 88.2427C188.69 88.3056 189.199 88.205 189.677 87.9416C190.155 87.6783 190.432 87.2342 190.507 86.6068C190.759 84.8022 191.105 82.9913 191.545 81.1737C191.985 79.3561 192.488 77.727 193.055 76.2853C193.621 74.8436 194.249 73.6653 194.942 72.7503C195.634 71.8358 196.369 71.3779 197.15 71.3779C197.552 71.3779 197.86 71.6541 198.074 72.2051C198.287 72.7565 198.395 73.5084 198.395 74.4611C198.395 75.1633 198.338 75.8841 198.225 76.6235C198.112 77.363 197.98 78.1277 197.829 78.9172C197.678 79.7072 197.546 80.5153 197.432 81.3426C197.319 82.1702 197.263 83.0347 197.263 83.9373C197.263 84.5641 197.326 85.2911 197.451 86.1183C197.577 86.9451 197.816 87.7294 198.168 88.4683C198.521 89.2082 199.005 89.8346 199.622 90.3484C200.238 90.8622 201.024 91.1193 201.98 91.1193C203.414 91.1193 204.684 90.8121 205.792 90.1981C206.899 89.5841 207.849 88.7822 208.641 87.7919C208.682 87.7399 208.72 87.6845 208.76 87.633C208.821 87.7794 208.874 87.9345 208.943 88.0738C209.484 89.1767 210.22 90.0288 211.151 90.6308C212.081 91.2324 213.176 91.5644 214.434 91.6274C215.692 91.6894 217.063 91.4575 218.548 90.9313C219.654 90.5301 220.617 90.0288 221.434 89.4272C222.252 88.8256 222.988 88.0924 223.642 87.2275C224.297 86.3626 224.894 85.366 225.435 84.2383C225.976 83.1096 226.523 81.8191 227.076 80.3646C227.177 79.9643 227.083 79.607 226.794 79.2931C226.504 78.9802 226.152 78.7607 225.737 78.6348Z" fill="#0D0C23"/>
<path fill-rule="evenodd" clip-rule="evenodd" d="M246.248 74.4409C246.122 75.1809 245.952 75.9961 245.739 76.8854C245.524 77.7756 245.254 78.6967 244.927 79.6494C244.6 80.6021 244.197 81.4608 243.72 82.225C243.241 82.9902 242.694 83.5975 242.078 84.0488C241.461 84.5001 240.751 84.6881 239.945 84.6127C239.543 84.5631 239.234 84.2873 239.021 83.7855C238.807 83.2846 238.694 82.6448 238.681 81.8677C238.668 81.0911 238.737 80.2386 238.889 79.3107C239.04 78.3838 239.272 77.4745 239.587 76.5843C239.901 75.6951 240.285 74.8736 240.738 74.1213C241.191 73.3695 241.713 72.7865 242.304 72.3729C242.895 71.9593 243.543 71.7656 244.248 71.79C244.952 71.8152 245.707 72.1659 246.512 72.8428C246.461 73.1691 246.374 73.702 246.248 74.4409ZM259.664 77.3176C259.274 77.1172 258.872 77.0738 258.456 77.1864C258.042 77.299 257.745 77.6816 257.57 78.3332C257.469 79.0355 257.243 79.8622 256.891 80.8149C256.538 81.7675 256.104 82.6706 255.589 83.5222C255.072 84.3746 254.481 85.0831 253.815 85.6469C253.148 86.2113 252.437 86.4684 251.683 86.4174C251.053 86.3678 250.613 86.0482 250.362 85.459C250.109 84.8698 249.978 84.1309 249.965 83.2402C249.952 82.351 250.041 81.3482 250.229 80.2324C250.418 79.117 250.645 78.0079 250.908 76.904C251.173 75.8015 251.443 74.742 251.72 73.7268C251.997 72.7116 252.223 71.8529 252.4 71.1512C252.601 70.5243 252.538 69.9919 252.211 69.5526C251.884 69.1146 251.475 68.8007 250.985 68.6128C250.493 68.4248 249.996 68.3747 249.493 68.4625C248.99 68.5503 248.663 68.8198 248.512 69.2706C247.027 67.9921 245.6 67.3028 244.229 67.2026C242.857 67.1024 241.593 67.4034 240.436 68.1052C239.278 68.8069 238.253 69.8221 237.36 71.1512C236.467 72.4803 235.744 73.9276 235.19 75.4943C234.637 77.0609 234.29 78.6595 234.153 80.2887C234.014 81.9183 234.121 83.4038 234.473 84.7448C234.826 86.0858 235.448 87.1831 236.342 88.0346C237.234 88.8871 238.448 89.3136 239.983 89.3136C240.663 89.3136 241.317 89.1757 241.946 88.9C242.574 88.6238 243.153 88.2979 243.682 87.922C244.21 87.5461 244.675 87.1511 245.078 86.7375C245.48 86.3239 245.795 85.9795 246.022 85.7032C246.197 86.6058 246.487 87.371 246.89 87.9974C247.292 88.6238 247.751 89.1385 248.267 89.5388C248.782 89.9395 249.324 90.2343 249.89 90.4227C250.456 90.6107 251.003 90.7047 251.531 90.7047C252.714 90.7047 253.82 90.3035 254.853 89.5011C255.884 88.6996 256.809 87.715 257.627 86.5495C258.444 85.3836 259.117 84.1557 259.645 82.8643C260.174 81.5734 260.526 80.4265 260.702 79.4233C260.878 79.0474 260.847 78.6529 260.608 78.2393C260.368 77.8256 260.054 77.5189 259.664 77.3176Z" fill="#0D0C23"/>
<path fill-rule="evenodd" clip-rule="evenodd" d="M327.595 98.0772C327.381 98.9292 327.047 99.6505 326.594 100.239C326.142 100.828 325.576 101.136 324.896 101.161C324.469 101.186 324.142 100.96 323.915 100.484C323.689 100.007 323.532 99.3934 323.444 98.6416C323.355 97.8893 323.317 97.0492 323.33 96.1218C323.343 95.1944 323.38 94.2794 323.444 93.3768C323.506 92.4747 323.581 91.6341 323.67 90.8575C323.758 90.0799 323.827 89.4793 323.877 89.0528C324.732 89.153 325.444 89.5222 326.009 90.1619C326.576 90.8012 327.01 91.5592 327.312 92.437C327.614 93.3143 327.789 94.2608 327.84 95.276C327.89 96.2911 327.808 97.2247 327.595 98.0772ZM313.933 98.0772C313.72 98.9292 313.386 99.6505 312.933 100.239C312.481 100.828 311.914 101.136 311.235 101.161C310.807 101.186 310.48 100.96 310.254 100.484C310.027 100.007 309.87 99.3934 309.782 98.6416C309.693 97.8893 309.656 97.0492 309.669 96.1218C309.681 95.1944 309.719 94.2794 309.782 93.3768C309.844 92.4747 309.92 91.6341 310.009 90.8575C310.096 90.0799 310.165 89.4793 310.216 89.0528C311.071 89.153 311.782 89.5222 312.348 90.1619C312.914 90.8012 313.348 91.5592 313.65 92.437C313.952 93.3143 314.128 94.2608 314.179 95.276C314.229 96.2911 314.147 97.2247 313.933 98.0772ZM299.914 76.719C299.888 77.3201 299.831 77.853 299.743 78.3167C299.655 78.7813 299.536 79.0752 299.385 79.2007C299.108 79.0499 298.768 78.6621 298.366 78.0347C297.963 77.4084 297.649 76.6995 297.422 75.91C297.196 75.1204 297.126 74.3438 297.215 73.5786C297.302 72.8143 297.699 72.2195 298.403 71.7925C298.68 71.6422 298.919 71.6985 299.121 71.9619C299.322 72.2252 299.485 72.6073 299.611 73.1087C299.737 73.6105 299.825 74.1868 299.875 74.8385C299.926 75.4906 299.938 76.117 299.914 76.719ZM296.573 84.2207C296.183 84.6338 295.749 84.9911 295.271 85.2922C294.793 85.5932 294.302 85.8188 293.8 85.9691C293.296 86.1199 292.843 86.1571 292.441 86.0817C291.308 85.8565 290.44 85.3671 289.837 84.6152C289.233 83.8634 288.849 82.9799 288.686 81.9647C288.522 80.9491 288.541 79.8647 288.743 78.7117C288.943 77.5586 289.283 76.4872 289.761 75.4968C290.239 74.5065 290.818 73.654 291.497 72.9398C292.176 72.2252 292.918 71.7806 293.724 71.6045C293.422 72.883 293.321 74.2059 293.422 75.5717C293.522 76.938 293.85 78.2227 294.403 79.4258C294.755 80.1538 295.177 80.8174 295.667 81.419C296.158 82.021 296.756 82.5348 297.46 82.9608C297.259 83.3873 296.963 83.8071 296.573 84.2207ZM338.332 77.095C338.407 76.5187 338.52 75.91 338.671 75.2707C338.822 74.6319 339.011 74.0113 339.237 73.4097C339.464 72.8077 339.728 72.2877 340.03 71.8493C340.332 71.4109 340.652 71.097 340.992 70.909C341.332 70.721 341.677 70.7396 342.03 70.9653C342.407 71.1914 342.64 71.6675 342.728 72.3941C342.816 73.1216 342.728 73.8982 342.464 74.7259C342.2 75.5531 341.728 76.3302 341.049 77.0568C340.37 77.7848 339.451 78.2604 338.294 78.486C338.243 78.1354 338.256 77.6717 338.332 77.095ZM353.541 77.095C353.616 76.5187 353.729 75.91 353.88 75.2707C354.031 74.6319 354.22 74.0113 354.446 73.4097C354.673 72.8077 354.937 72.2877 355.239 71.8493C355.541 71.4109 355.862 71.097 356.201 70.909C356.541 70.721 356.887 70.7396 357.239 70.9653C357.616 71.1914 357.849 71.6675 357.937 72.3941C358.025 73.1216 357.937 73.8982 357.673 74.7259C357.409 75.5531 356.937 76.3302 356.258 77.0568C355.579 77.7848 354.66 78.2604 353.503 78.486C353.452 78.1354 353.465 77.6717 353.541 77.095ZM367.674 79.2946C367.384 78.9817 367.033 78.7623 366.617 78.6363C366.202 78.5113 365.806 78.4989 365.428 78.5991C365.051 78.6993 364.812 78.9626 364.711 79.3886C364.51 80.191 364.189 81.012 363.749 81.8512C363.309 82.6917 362.768 83.4875 362.127 84.2393C361.485 84.9911 360.761 85.6562 359.957 86.2324C359.151 86.8092 358.308 87.2228 357.428 87.4728C356.547 87.7495 355.817 87.7805 355.239 87.5672C354.66 87.3545 354.201 86.991 353.861 86.4772C353.522 85.9629 353.277 85.3427 353.125 84.6152C352.975 83.8887 352.886 83.1368 352.861 82.3592C354.296 82.4599 355.573 82.2032 356.692 81.5883C357.811 80.9744 358.761 80.1591 359.542 79.1439C360.321 78.1292 360.912 76.9886 361.315 75.7225C361.717 74.4564 361.944 73.1969 361.994 71.9432C362.019 70.7649 361.843 69.7684 361.466 68.9536C361.089 68.1392 360.579 67.5057 359.938 67.0549C359.296 66.6031 358.56 66.3402 357.729 66.2649C356.9 66.1895 356.056 66.303 355.201 66.6031C354.169 66.9547 353.295 67.5248 352.579 68.3143C351.862 69.1043 351.264 70.0198 350.786 71.0593C350.307 72.1002 349.93 73.2213 349.653 74.4249C349.376 75.628 349.175 76.813 349.05 77.9785C348.928 79.1096 348.861 80.192 348.846 81.2281C348.751 81.4347 348.649 81.6422 348.54 81.8512C348.099 82.6917 347.559 83.4875 346.917 84.2393C346.276 84.9911 345.552 85.6562 344.747 86.2324C343.942 86.8092 343.099 87.2228 342.219 87.4728C341.337 87.7495 340.608 87.7805 340.03 87.5672C339.451 87.3545 338.992 86.991 338.652 86.4772C338.313 85.9629 338.067 85.3427 337.917 84.6152C337.765 83.8887 337.677 83.1368 337.652 82.3592C339.086 82.4599 340.363 82.2032 341.483 81.5883C342.602 80.9744 343.552 80.1591 344.332 79.1439C345.112 78.1292 345.703 76.9886 346.106 75.7225C346.508 74.4564 346.735 73.1969 346.785 71.9432C346.81 70.7649 346.634 69.7684 346.257 68.9536C345.879 68.1392 345.37 67.5057 344.728 67.0549C344.087 66.6031 343.351 66.3402 342.521 66.2649C341.69 66.1895 340.847 66.303 339.992 66.6031C338.96 66.9547 338.086 67.5248 337.369 68.3143C336.652 69.1043 336.054 70.0198 335.577 71.0593C335.099 72.1002 334.721 73.2213 334.445 74.4249C334.167 75.628 333.966 76.813 333.841 77.9785C333.769 78.6358 333.722 79.2732 333.687 79.8991C333.443 80.1052 333.206 80.3127 332.954 80.5164C332.086 81.2186 331.173 81.8512 330.218 82.4155C329.261 82.9799 328.267 83.4436 327.236 83.8071C326.204 84.1706 325.148 84.3901 324.066 84.465L326.406 59.4964C326.557 58.9698 326.481 58.5065 326.18 58.1053C325.878 57.7041 325.488 57.4284 325.01 57.2781C324.532 57.1274 324.022 57.1403 323.481 57.3153C322.94 57.4914 322.494 57.8926 322.141 58.5185C321.965 59.4716 321.783 60.7749 321.595 62.4294C321.405 64.0838 321.217 65.889 321.028 67.8444C320.84 69.7998 320.651 71.8178 320.462 73.8982C320.274 75.9796 320.109 77.9222 319.972 79.7269C319.965 79.807 319.96 79.8795 319.954 79.9587C319.734 80.1448 319.52 80.3322 319.292 80.5164C318.425 81.2186 317.512 81.8512 316.556 82.4155C315.599 82.9799 314.606 83.4436 313.575 83.8071C312.543 84.1706 311.486 84.3901 310.405 84.465L312.744 59.4964C312.896 58.9698 312.82 58.5065 312.518 58.1053C312.216 57.7041 311.826 57.4284 311.348 57.2781C310.87 57.1274 310.361 57.1403 309.819 57.3153C309.278 57.4914 308.832 57.8926 308.48 58.5185C308.304 59.4716 308.121 60.7749 307.933 62.4294C307.744 64.0838 307.555 65.889 307.367 67.8444C307.178 69.7998 306.989 71.8178 306.8 73.8982C306.612 75.9796 306.448 77.9222 306.31 79.7269C306.307 79.7631 306.305 79.796 306.302 79.8323C305.906 80.015 305.476 80.1753 305.008 80.3098C304.529 80.4482 303.989 80.5297 303.385 80.5545C303.486 80.1028 303.567 79.6014 303.63 79.0499C303.693 78.4989 303.744 77.9222 303.782 77.3201C303.819 76.719 303.831 76.117 303.819 75.5154C303.806 74.9134 303.775 74.3624 303.725 73.8605C303.599 72.7833 303.367 71.7615 303.027 70.7959C302.687 69.8313 302.228 69.0232 301.65 68.3706C301.07 67.7189 300.347 67.28 299.479 67.0549C298.611 66.8292 297.598 66.9041 296.441 67.28C294.73 67.0549 293.189 67.2118 291.818 67.7504C290.447 68.29 289.258 69.0728 288.251 70.1004C287.246 71.1289 286.422 72.3378 285.78 73.7293C285.138 75.1204 284.71 76.5497 284.496 78.0157C284.406 78.6373 284.362 79.256 284.348 79.8733C283.959 80.6681 283.533 81.3627 283.062 81.9456C282.396 82.7728 281.704 83.4498 280.987 83.976C280.27 84.5026 279.559 84.9038 278.855 85.1796C278.15 85.4558 277.521 85.6438 276.968 85.7435C276.314 85.8689 275.684 85.8818 275.081 85.7812C274.477 85.6814 273.923 85.3928 273.421 84.9163C273.018 84.5656 272.709 84.0013 272.496 83.2241C272.282 82.447 272.156 81.564 272.119 80.5732C272.081 79.5828 272.119 78.5485 272.232 77.4709C272.345 76.3932 272.539 75.3714 272.817 74.4063C273.093 73.4412 273.445 72.5763 273.873 71.8111C274.3 71.0473 274.804 70.5016 275.383 70.1758C275.709 70.2263 275.911 70.42 275.987 70.7582C276.062 71.097 276.081 71.4982 276.043 71.9619C276.006 72.426 275.949 72.9021 275.874 73.3906C275.798 73.8796 275.76 74.2875 275.76 74.6128C275.886 75.2898 276.131 75.8164 276.496 76.1924C276.86 76.5683 277.27 76.7882 277.723 76.8502C278.176 76.9132 278.622 76.8068 279.063 76.5306C279.502 76.2553 279.861 75.8164 280.138 75.2144C280.163 75.2397 280.201 75.2521 280.251 75.2521L280.78 70.4768C280.93 69.8246 280.829 69.2484 280.478 68.747C280.125 68.2456 279.66 67.957 279.081 67.8821C278.351 66.8292 277.364 66.2716 276.119 66.2086C274.873 66.1461 273.596 66.5535 272.288 67.4308C271.483 68.008 270.772 68.8033 270.156 69.8184C269.539 70.8341 269.036 71.9619 268.646 73.2027C268.256 74.4435 267.979 75.754 267.816 77.1326C267.652 78.5113 267.621 79.8528 267.721 81.1556C267.822 82.4599 268.055 83.6883 268.42 84.8409C268.784 85.9944 269.294 86.9595 269.949 87.7361C270.502 88.4131 271.13 88.9087 271.835 89.2221C272.539 89.5356 273.275 89.7293 274.043 89.8046C274.81 89.8795 275.571 89.848 276.327 89.7106C277.081 89.5733 277.798 89.3791 278.477 89.1277C279.358 88.8023 280.264 88.3883 281.195 87.8869C282.125 87.386 283.018 86.7839 283.874 86.0817C284.324 85.7125 284.757 85.3098 285.176 84.8781C285.367 85.3494 285.58 85.8055 285.837 86.2324C286.516 87.3602 287.434 88.2757 288.591 88.9774C289.748 89.6792 291.17 90.0169 292.856 89.9926C294.668 89.9673 296.34 89.5103 297.875 88.6201C299.41 87.7309 300.668 86.4199 301.65 84.6906C303.119 84.6906 304.565 84.4492 305.986 83.9698C305.975 84.1215 305.962 84.2813 305.951 84.4277C305.851 85.7563 305.8 86.6585 305.8 87.135C305.776 87.9622 305.719 88.9836 305.631 90.1991C305.543 91.4152 305.486 92.6937 305.461 94.0347C305.436 95.3757 305.486 96.7295 305.612 98.0963C305.738 99.4621 306.002 100.703 306.404 101.819C306.807 102.934 307.379 103.881 308.121 104.658C308.863 105.435 309.839 105.899 311.047 106.049C312.329 106.224 313.436 105.999 314.367 105.372C315.298 104.745 316.053 103.887 316.632 102.797C317.21 101.706 317.619 100.446 317.858 99.0175C318.097 97.5887 318.166 96.1533 318.066 94.7116C317.965 93.2699 317.701 91.9103 317.273 90.6323C316.845 89.3533 316.254 88.3005 315.499 87.4728C315.953 87.3483 316.493 87.1102 317.122 86.7586C317.75 86.408 318.399 86.013 319.066 85.5741C319.229 85.4663 319.391 85.3528 319.554 85.2421C319.493 86.1304 319.462 86.7639 319.462 87.135C319.437 87.9622 319.381 88.9836 319.292 90.1991C319.205 91.4152 319.148 92.6937 319.123 94.0347C319.098 95.3757 319.148 96.7295 319.273 98.0963C319.399 99.4621 319.664 100.703 320.066 101.819C320.468 102.934 321.041 103.881 321.783 104.658C322.525 105.435 323.5 105.899 324.708 106.049C325.991 106.224 327.098 105.999 328.029 105.372C328.96 104.745 329.714 103.887 330.293 102.797C330.872 101.706 331.28 100.446 331.52 99.0175C331.759 97.5887 331.827 96.1533 331.727 94.7116C331.626 93.2699 331.362 91.9103 330.935 90.6323C330.507 89.3533 329.916 88.3005 329.161 87.4728C329.614 87.3483 330.155 87.1102 330.784 86.7586C331.412 86.408 332.06 86.013 332.728 85.5741C333.074 85.3461 333.418 85.1109 333.762 84.869C333.892 86.0951 334.17 87.1703 334.614 88.0748C335.155 89.1783 335.891 90.0303 336.822 90.6323C337.752 91.2334 338.847 91.5659 340.106 91.6284C341.363 91.6904 342.734 91.459 344.219 90.9324C345.326 90.5317 346.288 90.0303 347.106 89.4287C347.923 88.8267 348.659 88.0934 349.313 87.229C349.351 87.1789 349.387 87.1245 349.424 87.074C349.54 87.4251 349.67 87.7624 349.823 88.0748C350.364 89.1783 351.1 90.0303 352.031 90.6323C352.961 91.2334 354.056 91.5659 355.314 91.6284C356.572 91.6904 357.943 91.459 359.428 90.9324C360.535 90.5317 361.497 90.0303 362.315 89.4287C363.132 88.8267 363.868 88.0934 364.523 87.229C365.177 86.3636 365.774 85.3671 366.315 84.2393C366.856 83.1111 367.403 81.8206 367.957 80.3661C368.058 79.9654 367.963 79.6081 367.674 79.2946Z" fill="#0D0C23"/>
<path d="M70.9439 56.646L70.9007 56.6206L70.8008 56.5901C70.841 56.624 70.8913 56.6437 70.9439 56.646Z" fill="#0D0C22"/>
<path d="M71.5737 61.144L71.5254 61.1576L71.5737 61.144Z" fill="#0D0C22"/>
<path d="M70.9616 56.6391C70.9555 56.6383 70.9495 56.6368 70.9436 56.6348C70.9433 56.6388 70.9433 56.6428 70.9436 56.6468C70.9502 56.6459 70.9565 56.6432 70.9616 56.6391Z" fill="#0D0C22"/>
<path d="M70.9434 56.6466H70.9498V56.6426L70.9434 56.6466Z" fill="#0D0C22"/>
<path d="M71.5332 61.1357L71.6061 61.0942L71.6332 61.079L71.6577 61.0527C71.6115 61.0726 71.5694 61.1008 71.5332 61.1357Z" fill="#0D0C22"/>
<path d="M71.0706 56.7442L70.9995 56.6764L70.9512 56.6501C70.9771 56.6959 71.02 56.7297 71.0706 56.7442Z" fill="#0D0C22"/>
<path d="M53.1683 100.392C53.1114 100.416 53.0616 100.455 53.0234 100.504L53.0683 100.475C53.0988 100.447 53.142 100.414 53.1683 100.392Z" fill="#0D0C22"/>
<path d="M63.564 98.3465C63.564 98.2822 63.5326 98.294 63.5403 98.5227C63.5403 98.5041 63.5479 98.4854 63.5513 98.4676C63.5555 98.427 63.5589 98.3872 63.564 98.3465Z" fill="#0D0C22"/>
<path d="M62.4847 100.392C62.4278 100.416 62.378 100.455 62.3398 100.504L62.3847 100.475C62.4152 100.447 62.4584 100.414 62.4847 100.392Z" fill="#0D0C22"/>
<path d="M45.8478 100.878C45.8046 100.84 45.7518 100.816 45.6953 100.807C45.741 100.829 45.7868 100.851 45.8173 100.868L45.8478 100.878Z" fill="#0D0C22"/>
<path d="M44.2008 99.3006C44.194 99.2339 44.1735 99.1693 44.1406 99.1108C44.1639 99.1717 44.1835 99.2339 44.1991 99.2972L44.2008 99.3006Z" fill="#0D0C22"/>
<path d="M55.2668 71.0851C53.0053 72.0532 50.4388 73.1509 47.1126 73.1509C45.7211 73.1481 44.3364 72.9573 42.9961 72.5834L45.2966 96.2025C45.378 97.1897 45.8277 98.1102 46.5565 98.7811C47.2852 99.4521 48.2396 99.8245 49.2301 99.8243C49.2301 99.8243 52.492 99.9937 53.5804 99.9937C54.7518 99.9937 58.2644 99.8243 58.2644 99.8243C59.2548 99.8243 60.209 99.4518 60.9376 98.7809C61.6661 98.1099 62.1157 97.1895 62.1971 96.2025L64.6611 70.1025C63.56 69.7264 62.4487 69.4766 61.196 69.4766C59.0293 69.4757 57.2836 70.2219 55.2668 71.0851Z" fill="#FFDD00"/>
<path d="M35.873 61.0081L35.912 61.0445L35.9374 61.0597C35.9178 61.0403 35.8963 61.023 35.873 61.0081Z" fill="#0D0C22"/>
<path d="M75.2982 58.8281L74.9518 57.0807C74.6409 55.5129 73.9354 54.0315 72.326 53.4648C71.8102 53.2835 71.2249 53.2056 70.8294 52.8304C70.4338 52.4552 70.3169 51.8724 70.2254 51.332C70.056 50.3402 69.8968 49.3474 69.7232 48.3573C69.5732 47.506 69.4547 46.5497 69.0642 45.7688C68.556 44.7202 67.5014 44.1069 66.4528 43.7012C65.9155 43.5006 65.3672 43.331 64.8105 43.193C62.1906 42.5019 59.4361 42.2477 56.7409 42.1029C53.5059 41.9244 50.2623 41.9782 47.035 42.2638C44.6328 42.4824 42.1028 42.7466 39.8201 43.5776C38.9858 43.8816 38.126 44.2467 37.4916 44.8913C36.7132 45.6832 36.4591 46.908 37.0275 47.8957C37.4315 48.597 38.1159 49.0925 38.8418 49.4203C39.7873 49.8427 40.7747 50.164 41.7877 50.3791C44.6083 51.0025 47.5296 51.2473 50.4112 51.3515C53.605 51.4804 56.8039 51.3759 59.9825 51.0389C60.7685 50.9525 61.5531 50.8489 62.3363 50.7281C63.2587 50.5866 63.8508 49.3805 63.5789 48.5402C63.2536 47.5357 62.3795 47.146 61.3911 47.2977C61.2454 47.3205 61.1005 47.3417 60.9548 47.3629L60.8498 47.3781C60.515 47.4205 60.1801 47.46 59.8453 47.4967C59.1535 47.5713 58.4601 47.6322 57.765 47.6797C56.2082 47.7881 54.6471 47.8381 53.0869 47.8406C51.5538 47.8406 50.0199 47.7974 48.4901 47.6966C47.7922 47.6509 47.0959 47.5927 46.4014 47.5221C46.0855 47.4891 45.7704 47.4544 45.4553 47.4154L45.1554 47.3773L45.0902 47.368L44.7794 47.3231C44.1441 47.2274 43.5088 47.1173 42.8803 46.9843C42.8169 46.9702 42.7602 46.9349 42.7195 46.8842C42.6789 46.8336 42.6567 46.7706 42.6567 46.7056C42.6567 46.6406 42.6789 46.5776 42.7195 46.5269C42.7602 46.4763 42.8169 46.441 42.8803 46.4269H42.8922C43.4368 46.3109 43.9857 46.2118 44.5363 46.1254C44.7198 46.0966 44.9039 46.0684 45.0885 46.0407H45.0936C45.4383 46.0178 45.7848 45.956 46.1278 45.9153C49.1124 45.6049 52.1148 45.499 55.1138 45.5985C56.5698 45.6409 58.025 45.7264 59.4743 45.8738C59.786 45.906 60.096 45.9399 60.406 45.978C60.5246 45.9924 60.644 46.0093 60.7634 46.0237L61.004 46.0585C61.7053 46.1629 62.403 46.2897 63.0969 46.4388C64.1252 46.6624 65.4457 46.7352 65.9031 47.8618C66.0488 48.2192 66.1149 48.6165 66.1953 48.9917L66.2978 49.4703C66.3005 49.4788 66.3025 49.4876 66.3038 49.4965C66.546 50.6259 66.7885 51.7552 67.0313 52.8846C67.0491 52.968 67.0496 53.0542 67.0326 53.1378C67.0156 53.2214 66.9815 53.3006 66.9326 53.3705C66.8836 53.4403 66.8208 53.4994 66.748 53.5439C66.6752 53.5884 66.5941 53.6174 66.5096 53.6291H66.5028L66.3546 53.6494L66.208 53.6689C65.7439 53.7294 65.2791 53.7858 64.8139 53.8383C63.8974 53.9428 62.9795 54.0331 62.0602 54.1094C60.2335 54.2613 58.4031 54.3609 56.569 54.4084C55.6344 54.4332 54.7002 54.4448 53.7662 54.4431C50.0486 54.4402 46.3343 54.2241 42.6415 53.796C42.2417 53.7485 41.8419 53.6977 41.4421 53.6461C41.7521 53.6859 41.2168 53.6156 41.1084 53.6003C40.8543 53.5647 40.6002 53.5278 40.3461 53.4894C39.4931 53.3615 38.6453 53.2039 37.794 53.0659C36.7649 52.8965 35.7806 52.9812 34.8498 53.4894C34.0857 53.9075 33.4672 54.5487 33.077 55.3274C32.6755 56.1575 32.556 57.0612 32.3765 57.9531C32.1969 58.8451 31.9174 59.8047 32.0233 60.7204C32.2511 62.6964 33.6326 64.3024 35.6197 64.6615C37.4891 65.0003 39.3686 65.2748 41.2532 65.5085C48.6564 66.4152 56.1356 66.5237 63.562 65.8321C64.1667 65.7756 64.7707 65.7141 65.3737 65.6475C65.5621 65.6268 65.7527 65.6485 65.9316 65.711C66.1105 65.7735 66.2731 65.8752 66.4076 66.0087C66.5421 66.1422 66.645 66.3041 66.7088 66.4826C66.7726 66.661 66.7957 66.8514 66.7764 67.0399L66.5884 68.8678C66.2095 72.5614 65.8306 76.2547 65.4517 79.9477C65.0564 83.8259 64.6586 87.7038 64.2582 91.5814C64.1453 92.6735 64.0323 93.7653 63.9194 94.8568C63.811 95.9317 63.7957 97.0405 63.5916 98.1026C63.2697 99.7729 62.139 100.799 60.489 101.174C58.9773 101.518 57.4331 101.699 55.8829 101.713C54.1643 101.722 52.4466 101.646 50.728 101.655C48.8933 101.665 46.6462 101.496 45.23 100.13C43.9857 98.931 43.8138 97.0532 43.6444 95.4294C43.4185 93.2797 43.1946 91.1303 42.9727 88.9811L41.7275 77.0305L40.922 69.2981C40.9085 69.1702 40.8949 69.044 40.8822 68.9152C40.7857 67.9928 40.1326 67.0899 39.1035 67.1365C38.2226 67.1755 37.2214 67.9242 37.3248 68.9152L37.9219 74.6479L39.1569 86.5061C39.5086 89.8744 39.8596 93.2433 40.2097 96.6127C40.2775 97.2581 40.341 97.9053 40.4121 98.5507C40.7992 102.078 43.4927 103.978 46.8283 104.514C48.7764 104.827 50.772 104.891 52.7489 104.924C55.2832 104.964 57.8429 105.062 60.3357 104.603C64.0295 103.925 66.801 101.459 67.1965 97.6325C67.3094 96.528 67.4224 95.4232 67.5353 94.3181C67.9108 90.6635 68.2858 87.0087 68.6602 83.3535L69.8849 71.4106L70.4465 65.9371C70.4745 65.6657 70.5891 65.4105 70.7734 65.2093C70.9577 65.0081 71.2018 64.8716 71.4697 64.8199C72.5259 64.6141 73.5356 64.2626 74.2869 63.4588C75.4829 62.1789 75.7209 60.5103 75.2982 58.8281ZM35.5655 60.0089C35.5816 60.0012 35.5519 60.1393 35.5392 60.2037C35.5367 60.1063 35.5418 60.0199 35.5655 60.0089ZM35.668 60.8017C35.6765 60.7957 35.7019 60.8296 35.7281 60.8703C35.6883 60.833 35.6629 60.8051 35.6671 60.8017H35.668ZM35.7688 60.9346C35.8052 60.9965 35.8247 61.0354 35.7688 60.9346V60.9346ZM35.9712 61.099H35.9763C35.9763 61.1049 35.9856 61.1108 35.989 61.1168C35.9834 61.1102 35.9772 61.1043 35.9704 61.099H35.9712ZM71.4206 60.8533C71.0411 61.2142 70.4694 61.3819 69.9044 61.4657C63.5687 62.4059 57.1407 62.8819 50.7356 62.6719C46.1515 62.5152 41.6157 62.0061 37.0774 61.3649C36.6327 61.3023 36.1508 61.2209 35.845 60.8931C35.269 60.2748 35.5519 59.0297 35.7019 58.2826C35.8391 57.5982 36.1017 56.686 36.9156 56.5886C38.1862 56.4395 39.6617 56.9757 40.9186 57.1663C42.432 57.3972 43.951 57.5822 45.4756 57.7211C51.9824 58.314 58.5984 58.2216 65.0764 57.3543C66.2572 57.1956 67.4337 57.0113 68.606 56.8012C69.6503 56.614 70.8082 56.2625 71.4392 57.3441C71.8721 58.081 71.9296 59.067 71.8627 59.8996C71.8421 60.2624 71.6836 60.6035 71.4197 60.8533H71.4206Z" fill="#0D0C22"/>
</svg>
