<svg  viewBox="0 0 300 300" fill="none" xmlns="http://www.w3.org/2000/svg">
<rect width="300" height="300" fill="white"/>
<path d="M215.457 85.7847L215.293 85.6879L214.912 85.5718C215.065 85.7011 215.257 85.776 215.457 85.7847Z" fill="#0D0C22"/>
<path d="M217.856 102.917L217.672 102.969L217.856 102.917Z" fill="#0D0C22"/>
<path d="M215.529 85.7583C215.505 85.7553 215.482 85.7498 215.46 85.7419C215.459 85.7571 215.459 85.7724 215.46 85.7876C215.485 85.7844 215.509 85.7742 215.529 85.7583Z" fill="#0D0C22"/>
<path d="M215.459 85.7869H215.484V85.7715L215.459 85.7869Z" fill="#0D0C22"/>
<path d="M217.709 102.886L217.986 102.728L218.09 102.67L218.183 102.57C218.007 102.646 217.847 102.753 217.709 102.886Z" fill="#0D0C22"/>
<path d="M215.939 86.1589L215.668 85.9008L215.484 85.8008C215.583 85.9752 215.747 86.1038 215.939 86.1589Z" fill="#0D0C22"/>
<path d="M147.753 252.409C147.536 252.503 147.347 252.649 147.201 252.835L147.372 252.725C147.488 252.619 147.653 252.493 147.753 252.409Z" fill="#0D0C22"/>
<path d="M187.347 244.619C187.347 244.374 187.227 244.419 187.257 245.29C187.257 245.219 187.286 245.148 187.298 245.08C187.315 244.925 187.327 244.774 187.347 244.619Z" fill="#0D0C22"/>
<path d="M183.241 252.409C183.025 252.503 182.835 252.649 182.689 252.835L182.86 252.725C182.977 252.619 183.141 252.493 183.241 252.409Z" fill="#0D0C22"/>
<path d="M119.87 254.261C119.705 254.118 119.504 254.024 119.289 253.99C119.463 254.074 119.638 254.158 119.754 254.222L119.87 254.261Z" fill="#0D0C22"/>
<path d="M113.594 248.252C113.569 247.998 113.491 247.752 113.365 247.53C113.454 247.761 113.528 247.998 113.588 248.239L113.594 248.252Z" fill="#0D0C22"/>
<path d="M155.742 140.782C147.128 144.469 137.353 148.651 124.683 148.651C119.383 148.64 114.109 147.913 109.004 146.489L117.766 236.452C118.076 240.212 119.789 243.718 122.565 246.274C125.341 248.829 128.976 250.248 132.749 250.247C132.749 250.247 145.173 250.892 149.319 250.892C153.78 250.892 167.16 250.247 167.16 250.247C170.932 250.247 174.566 248.828 177.341 246.273C180.116 243.717 181.829 240.211 182.139 236.452L191.524 137.039C187.33 135.607 183.097 134.655 178.325 134.655C170.073 134.652 163.424 137.494 155.742 140.782Z" fill="#FFDD00"/>
<path d="M81.8789 102.4L82.0273 102.539L82.1241 102.597C82.0496 102.523 81.9674 102.457 81.8789 102.4Z" fill="#0D0C22"/>
<path d="M232.044 94.0967L230.724 87.441C229.54 81.4693 226.853 75.8266 220.723 73.6683C218.758 72.9779 216.529 72.6811 215.022 71.2519C213.516 69.8227 213.07 67.603 212.722 65.5447C212.077 61.7668 211.47 57.9857 210.809 54.2143C210.238 50.9719 209.786 47.3296 208.299 44.355C206.363 40.3609 202.347 38.0252 198.352 36.4798C196.306 35.7158 194.217 35.0695 192.097 34.5441C182.118 31.9115 171.627 30.9436 161.361 30.392C149.039 29.712 136.684 29.9169 124.392 31.0049C115.242 31.8373 105.605 32.8439 96.9109 36.0088C93.7331 37.167 90.4585 38.5575 88.042 41.0126C85.0771 44.0291 84.1093 48.6942 86.2741 52.456C87.813 55.1273 90.4197 57.0146 93.1846 58.2632C96.7859 59.8719 100.547 61.096 104.405 61.9152C115.149 64.2897 126.276 65.2221 137.251 65.6189C149.416 66.1099 161.601 65.712 173.708 64.4285C176.701 64.0994 179.69 63.7047 182.673 63.2444C186.186 62.7057 188.442 58.1115 187.406 54.9111C186.167 51.0849 182.838 49.6008 179.073 50.1783C178.518 50.2654 177.966 50.3461 177.411 50.4267L177.011 50.4848C175.736 50.6461 174.46 50.7967 173.185 50.9365C170.55 51.2204 167.909 51.4526 165.261 51.6333C159.332 52.0463 153.386 52.2366 147.443 52.2463C141.604 52.2463 135.761 52.0818 129.934 51.6978C127.276 51.5236 124.624 51.3021 121.979 51.0332C120.775 50.9074 119.575 50.7751 118.375 50.6267L117.233 50.4816L116.984 50.4461L115.8 50.2751C113.381 49.9105 110.961 49.4911 108.567 48.9846C108.326 48.931 108.11 48.7966 107.955 48.6036C107.8 48.4106 107.715 48.1706 107.715 47.9232C107.715 47.6757 107.8 47.4357 107.955 47.2427C108.11 47.0497 108.326 46.9153 108.567 46.8618H108.612C110.687 46.4198 112.777 46.0423 114.874 45.7132C115.573 45.6035 116.275 45.496 116.978 45.3906H116.997C118.31 45.3035 119.63 45.068 120.936 44.9131C132.305 43.7307 143.74 43.3275 155.163 43.7065C160.709 43.8678 166.252 44.1937 171.772 44.755C172.959 44.8776 174.14 45.0067 175.321 45.1519C175.772 45.2067 176.227 45.2712 176.682 45.3261L177.598 45.4583C180.27 45.8562 182.927 46.3391 185.57 46.9069C189.487 47.7586 194.517 48.0361 196.259 52.3269C196.814 53.6884 197.065 55.2015 197.372 56.6307L197.762 58.4535C197.772 58.4862 197.78 58.5196 197.785 58.5535C198.707 62.8551 199.631 67.1567 200.556 71.4584C200.624 71.7761 200.625 72.1045 200.561 72.4229C200.496 72.7413 200.366 73.043 200.18 73.309C199.993 73.5751 199.754 73.7999 199.477 73.9694C199.2 74.1389 198.891 74.2495 198.569 74.2942H198.543L197.978 74.3716L197.42 74.4458C195.652 74.676 193.882 74.891 192.11 75.0911C188.619 75.489 185.123 75.8331 181.621 76.1235C174.664 76.702 167.692 77.0816 160.706 77.2623C157.146 77.3569 153.588 77.401 150.03 77.3946C135.871 77.3834 121.723 76.5605 107.657 74.9298C106.135 74.7491 104.612 74.5555 103.089 74.3587C104.27 74.5104 102.231 74.2426 101.818 74.1845C100.85 74.049 99.8822 73.9081 98.9144 73.7619C95.6656 73.2747 92.4361 72.6746 89.1938 72.1488C85.2739 71.5035 81.5251 71.8262 77.9795 73.7619C75.0691 75.3545 72.7135 77.7967 71.227 80.7628C69.6978 83.9244 69.2429 87.3668 68.559 90.764C67.875 94.1612 66.8104 97.8165 67.2136 101.304C68.0815 108.831 73.3434 114.948 80.9121 116.316C88.0324 117.606 95.1913 118.651 102.37 119.542C130.568 122.995 159.055 123.408 187.341 120.774C189.645 120.559 191.945 120.325 194.242 120.071C194.96 119.992 195.686 120.075 196.367 120.313C197.049 120.551 197.668 120.938 198.18 121.447C198.693 121.955 199.085 122.572 199.328 123.252C199.571 123.931 199.659 124.657 199.585 125.375L198.869 132.337C197.426 146.405 195.982 160.473 194.539 174.539C193.034 189.311 191.518 204.081 189.993 218.851C189.563 223.011 189.133 227.169 188.703 231.327C188.29 235.421 188.232 239.644 187.454 243.689C186.228 250.052 181.921 253.958 175.637 255.388C169.879 256.698 163.997 257.386 158.093 257.44C151.547 257.475 145.004 257.185 138.458 257.22C131.47 257.259 122.911 256.614 117.517 251.413C112.777 246.845 112.122 239.692 111.477 233.508C110.617 225.319 109.764 217.132 108.919 208.946L104.176 163.428L101.108 133.976C101.057 133.489 101.005 133.008 100.957 132.518C100.589 129.004 98.1014 125.565 94.1815 125.743C90.8263 125.891 87.0129 128.743 87.4065 132.518L89.681 154.353L94.3848 199.519C95.7247 212.349 97.0614 225.181 98.3949 238.015C98.653 240.473 98.895 242.938 99.166 245.396C100.64 258.83 110.9 266.07 123.605 268.109C131.025 269.302 138.626 269.548 146.156 269.67C155.809 269.825 165.558 270.196 175.053 268.447C189.122 265.866 199.678 256.472 201.185 241.899C201.615 237.692 202.045 233.484 202.476 229.275C203.906 215.355 205.334 201.434 206.76 187.512L211.425 142.022L213.564 121.174C213.671 120.14 214.107 119.169 214.809 118.402C215.511 117.636 216.441 117.116 217.461 116.919C221.484 116.135 225.33 114.796 228.192 111.734C232.747 106.86 233.654 100.504 232.044 94.0967ZM80.7056 98.594C80.7669 98.565 80.654 99.0908 80.6056 99.336C80.596 98.965 80.6153 98.6359 80.7056 98.594ZM81.096 101.614C81.1283 101.591 81.2251 101.72 81.3251 101.875C81.1734 101.733 81.0767 101.627 81.0928 101.614H81.096ZM81.4799 102.12C81.6187 102.356 81.6929 102.504 81.4799 102.12V102.12ZM82.251 102.746H82.2703C82.2703 102.769 82.3058 102.791 82.3187 102.814C82.2973 102.789 82.2736 102.766 82.2478 102.746H82.251ZM217.274 101.811C215.829 103.185 213.651 103.824 211.499 104.143C187.367 107.724 162.884 109.537 138.487 108.737C121.027 108.14 103.75 106.201 86.4644 103.759C84.7707 103.52 82.9349 103.211 81.7703 101.962C79.5765 99.607 80.654 94.8645 81.2251 92.019C81.7477 89.4122 82.7478 85.9376 85.8482 85.5666C90.6875 84.9988 96.3076 87.041 101.095 87.7668C106.859 88.6465 112.645 89.3509 118.452 89.88C143.236 92.1384 168.436 91.7867 193.11 88.4831C197.607 87.8787 202.088 87.1765 206.554 86.3764C210.531 85.6634 214.942 84.3245 217.345 88.4444C218.994 91.2512 219.213 95.0065 218.958 98.1778C218.88 99.5596 218.276 100.859 217.271 101.811H217.274Z" fill="#0D0C22"/>
</svg>
