<svg width="169" height="40" viewBox="0 0 169 40" fill="none" xmlns="http://www.w3.org/2000/svg">
<path fill-rule="evenodd" clip-rule="evenodd" d="M17.6331 2.6885C19.2816 1.75068 21.3126 1.75068 22.9611 2.6885L34.18 9.07094C35.8285 10.0088 36.844 11.7419 36.844 13.6176V26.3824C36.844 28.2581 35.8285 29.9913 34.18 30.9291L22.9611 37.3115C21.3126 38.2493 19.2816 38.2493 17.6331 37.3115L6.41418 30.9291C4.7657 29.9913 3.75019 28.2581 3.75019 26.3824V13.6176C3.75019 11.7419 4.7657 10.0088 6.41418 9.07094L17.6331 2.6885ZM21.4388 5.28658C20.7323 4.88466 19.8619 4.88466 19.1554 5.28658L7.93647 11.669C7.22997 12.0709 6.79475 12.8137 6.79475 13.6176V26.3824C6.79475 27.1863 7.22997 27.9291 7.93646 28.331L19.1554 34.7134C19.8619 35.1154 20.7323 35.1154 21.4388 34.7134L32.6577 28.331C33.3642 27.9291 33.7994 27.1863 33.7994 26.3824V13.6176C33.7994 12.8137 33.3642 12.0709 32.6577 11.669L21.4388 5.28658Z" fill="#242533"/>
<path fill-rule="evenodd" clip-rule="evenodd" d="M34.5522 13.7002L33.7986 12.2548C34.5522 13.7002 34.5516 13.7006 34.5509 13.7009L34.5493 13.7017L34.5451 13.7038L34.5329 13.71L34.4932 13.7295C34.4601 13.7458 34.4137 13.7683 34.3545 13.7964C34.2359 13.8526 34.0658 13.9313 33.8476 14.0273C33.7518 14.0694 33.6468 14.1149 33.5327 14.1633C30.7656 15.4506 27.9884 17.0887 25.8032 19.8378C23.3914 22.8721 21.5634 27.4404 21.5634 34.8067C21.5634 35.7041 20.8251 36.4317 19.9143 36.4317C19.0035 36.4317 18.2651 35.7041 18.2651 34.8067C18.2651 26.8841 20.244 21.561 23.2066 17.8338C23.5188 17.441 23.8404 17.068 24.1696 16.7133C18.9126 17.4484 12.1666 17.2553 5.42749 13.9079C4.61418 13.5039 4.28722 12.5268 4.69719 11.7254C5.10717 10.924 6.09883 10.6018 6.91214 11.0058C13.3678 14.2123 19.8853 14.1808 24.8513 13.3158C27.33 12.884 29.3987 12.2481 30.8427 11.7222C31.3767 11.5277 31.8237 11.3488 32.1727 11.2018C32.4945 11.0527 32.8121 10.9098 33.1242 10.7719C33.9397 10.4118 34.8979 10.7573 35.285 11.551C35.6721 12.3447 35.3471 13.2978 34.5522 13.7002Z" fill="#242533"/>
<path d="M49.9036 28.9655C49.3514 28.9655 48.9036 28.5178 48.9036 27.9655V10.6552C48.9036 10.1029 49.3514 9.65519 49.9036 9.65519H55.0348C57.6291 9.65519 59.7941 10.492 61.5298 12.1655C63.2842 13.8391 64.1615 16.2207 64.1615 19.3104C64.1615 22.4 63.2842 24.7816 61.5298 26.4552C59.7941 28.1288 57.6291 28.9655 55.0348 28.9655H49.9036ZM52.5431 25.6552H53.8869C55.7533 25.6552 57.3118 25.1862 58.5623 24.2483C59.8314 23.2736 60.466 21.6276 60.466 19.3104C60.466 16.9747 59.8314 15.338 58.5623 14.4C57.3118 13.4437 55.7533 12.9655 53.8869 12.9655H52.5431V25.6552Z" fill="#242533"/>
<path d="M65.9783 24.9655C65.9783 23.5862 66.5103 22.4828 67.5741 21.6552C68.638 20.8276 70.0751 20.4138 71.8855 20.4138H74.3491V19.8069C74.3491 19.1448 74.1252 18.6391 73.6772 18.2897C73.2293 17.9403 72.6321 17.7655 71.8855 17.7655C70.6723 17.7655 69.8605 18.2989 69.4498 19.3655L66.5103 18.7035C66.7342 17.5448 67.3315 16.6161 68.302 15.9173C69.2912 15.2 70.4857 14.8414 71.8855 14.8414C73.7892 14.8414 75.2543 15.338 76.2809 16.3311C77.3074 17.3242 77.8206 18.7678 77.8206 20.6621V28.9655H74.9651L74.6011 27.2C73.5186 28.5242 72.0721 29.1862 70.2617 29.1862C68.9926 29.1862 67.9567 28.8092 67.1542 28.0552C66.3703 27.3012 65.9783 26.2713 65.9783 24.9655ZM74.3491 23.3931V23.1173H72.0255C70.4204 23.1173 69.6178 23.715 69.6178 24.9104C69.6178 25.315 69.7578 25.646 70.0378 25.9035C70.3364 26.1426 70.719 26.2621 71.1856 26.2621C72.0628 26.2621 72.8094 25.9954 73.4253 25.4621C74.0412 24.9288 74.3491 24.2391 74.3491 23.3931Z" fill="#242533"/>
<path d="M81.2458 24.0552V17.9862H79.0621V15.0621H81.2458V11.5862L84.7173 9.43451V15.0621H88.4407V17.9862H84.7173V24C84.7173 24.8092 84.8666 25.3885 85.1652 25.738C85.4638 26.0874 85.9304 26.2621 86.565 26.2621C87.0316 26.2621 87.4796 26.1517 87.9088 25.9311L88.7207 28.6897C87.9928 29.0207 87.2276 29.1862 86.425 29.1862C84.7826 29.1862 83.5041 28.754 82.5896 27.8897C81.6937 27.0069 81.2458 25.7288 81.2458 24.0552Z" fill="#242533"/>
<path d="M89.4578 24.9655C89.4578 23.5862 89.9897 22.4828 91.0536 21.6552C92.1174 20.8276 93.5545 20.4138 95.3649 20.4138H97.8286V19.8069C97.8286 19.1448 97.6046 18.6391 97.1567 18.2897C96.7088 17.9403 96.1115 17.7655 95.3649 17.7655C94.1518 17.7655 93.3399 18.2989 92.9293 19.3655L89.9897 18.7035C90.2137 17.5448 90.8109 16.6161 91.7815 15.9173C92.7706 15.2 93.9651 14.8414 95.3649 14.8414C97.2687 14.8414 98.7338 15.338 99.7603 16.3311C100.787 17.3242 101.3 18.7678 101.3 20.6621V28.9655H98.4445L98.0806 27.2C96.998 28.5242 95.5516 29.1862 93.7412 29.1862C92.472 29.1862 91.4362 28.8092 90.6336 28.0552C89.8497 27.3012 89.4578 26.2713 89.4578 24.9655ZM97.8286 23.3931V23.1173H95.5049C93.8998 23.1173 93.0973 23.715 93.0973 24.9104C93.0973 25.315 93.2372 25.646 93.5172 25.9035C93.8158 26.1426 94.1984 26.2621 94.665 26.2621C95.5422 26.2621 96.2888 25.9954 96.9047 25.4621C97.5206 24.9288 97.8286 24.2391 97.8286 23.3931Z" fill="#242533"/>
<path d="M107.721 27.5311V28.3586V28.9655H104.249V9.43451H107.721V15.5035V16.3311C108.057 15.9081 108.542 15.5586 109.177 15.2828C109.811 14.9885 110.464 14.8414 111.136 14.8414C113.189 14.8414 114.776 15.4851 115.896 16.7724C117.015 18.0414 117.575 19.7885 117.575 22.0138C117.575 24.2391 117.015 25.9954 115.896 27.2828C114.776 28.5517 113.189 29.1862 111.136 29.1862C110.39 29.1862 109.69 29.0207 109.037 28.6897C108.402 28.3403 107.963 27.954 107.721 27.5311ZM113.012 25.1311C113.628 24.3586 113.936 23.3196 113.936 22.0138C113.936 20.7081 113.628 19.6782 113.012 18.9242C112.415 18.1517 111.631 17.7655 110.66 17.7655C109.69 17.7655 108.906 18.1426 108.309 18.8966C107.711 19.6506 107.413 20.6897 107.413 22.0138C107.413 23.338 107.711 24.377 108.309 25.1311C108.906 25.8851 109.69 26.2621 110.66 26.2621C111.631 26.2621 112.415 25.8851 113.012 25.1311Z" fill="#242533"/>
<path d="M119.116 24.9655C119.116 23.5862 119.648 22.4828 120.712 21.6552C121.776 20.8276 123.213 20.4138 125.023 20.4138H127.487V19.8069C127.487 19.1448 127.263 18.6391 126.815 18.2897C126.367 17.9403 125.77 17.7655 125.023 17.7655C123.81 17.7655 122.998 18.2989 122.588 19.3655L119.648 18.7035C119.872 17.5448 120.469 16.6161 121.44 15.9173C122.429 15.2 123.623 14.8414 125.023 14.8414C126.927 14.8414 128.392 15.338 129.419 16.3311C130.445 17.3242 130.958 18.7678 130.958 20.6621V28.9655H128.103L127.739 27.2C126.656 28.5242 125.21 29.1862 123.399 29.1862C122.13 29.1862 121.094 28.8092 120.292 28.0552C119.508 27.3012 119.116 26.2713 119.116 24.9655ZM127.487 23.3931V23.1173H125.163C123.558 23.1173 122.756 23.715 122.756 24.9104C122.756 25.315 122.895 25.646 123.175 25.9035C123.474 26.1426 123.857 26.2621 124.323 26.2621C125.2 26.2621 125.947 25.9954 126.563 25.4621C127.179 24.9288 127.487 24.2391 127.487 23.3931Z" fill="#242533"/>
<path d="M133.798 28.9655V15.0621H137.27V17.3242C138.334 15.669 139.724 14.8414 141.441 14.8414C142.001 14.8414 142.57 14.9334 143.149 15.1173L142.505 18.2897C142.076 18.0322 141.59 17.9035 141.049 17.9035C139.892 17.9035 138.968 18.4184 138.278 19.4483C137.606 20.4598 137.27 21.9862 137.27 24.0276V28.9655H133.798Z" fill="#242533"/>
<path d="M143.602 28.469C143.154 28.0276 142.93 27.4759 142.93 26.8138C142.93 26.1517 143.154 25.6 143.602 25.1586C144.05 24.7173 144.61 24.4966 145.282 24.4966C145.954 24.4966 146.514 24.7173 146.962 25.1586C147.409 25.6 147.633 26.1517 147.633 26.8138C147.633 27.4759 147.409 28.0276 146.962 28.469C146.514 28.9104 145.954 29.1311 145.282 29.1311C144.61 29.1311 144.05 28.9104 143.602 28.469Z" fill="#242533"/>
<path d="M149.687 24.9655C149.687 23.5862 150.219 22.4828 151.283 21.6552C152.347 20.8276 153.784 20.4138 155.595 20.4138H158.058V19.8069C158.058 19.1448 157.834 18.6391 157.386 18.2897C156.938 17.9403 156.341 17.7655 155.595 17.7655C154.381 17.7655 153.57 18.2989 153.159 19.3655L150.219 18.7035C150.443 17.5448 151.041 16.6161 152.011 15.9173C153 15.2 154.195 14.8414 155.595 14.8414C157.498 14.8414 158.963 15.338 159.99 16.3311C161.016 17.3242 161.53 18.7678 161.53 20.6621V28.9655H158.674L158.31 27.2C157.228 28.5242 155.781 29.1862 153.971 29.1862C152.702 29.1862 151.666 28.8092 150.863 28.0552C150.079 27.3012 149.687 26.2713 149.687 24.9655ZM158.058 23.3931V23.1173H155.735C154.129 23.1173 153.327 23.715 153.327 24.9104C153.327 25.315 153.467 25.646 153.747 25.9035C154.045 26.1426 154.428 26.2621 154.895 26.2621C155.772 26.2621 156.518 25.9954 157.134 25.4621C157.75 24.9288 158.058 24.2391 158.058 23.3931Z" fill="#242533"/>
<path d="M164.479 28.9655V15.0621H167.95V28.9655H164.479ZM164.619 12.6345C164.19 12.2115 163.975 11.6874 163.975 11.0621C163.975 10.4368 164.19 9.91267 164.619 9.48968C165.048 9.06669 165.58 8.85519 166.215 8.85519C166.849 8.85519 167.381 9.06669 167.81 9.48968C168.24 9.91267 168.454 10.4368 168.454 11.0621C168.454 11.6874 168.24 12.2115 167.81 12.6345C167.381 13.0575 166.849 13.269 166.215 13.269C165.58 13.269 165.048 13.0575 164.619 12.6345Z" fill="#242533"/>
</svg>
